<svg width="171" height="60" viewBox="0 0 171 60" fill="none" xmlns="http://www.w3.org/2000/svg">
<path d="M85.6163 20.312C84.0216 20.312 82.6696 20.0433 81.5603 19.506C80.4509 18.9513 79.5063 18.2407 78.7263 17.374L81.3263 14.748C82.5569 16.1347 84.0736 16.828 85.8763 16.828C86.8469 16.828 87.5663 16.6287 88.0343 16.23C88.5023 15.8313 88.7363 15.3027 88.7363 14.644C88.7363 14.1413 88.5976 13.7253 88.3203 13.396C88.0429 13.0493 87.4796 12.8153 86.6303 12.694L84.8363 12.46C82.9123 12.2173 81.4996 11.6367 80.5983 10.718C79.7143 9.79933 79.2723 8.57733 79.2723 7.052C79.2723 6.23733 79.4283 5.492 79.7403 4.816C80.0523 4.14 80.4943 3.55933 81.0663 3.074C81.6556 2.58867 82.3663 2.216 83.1983 1.956C84.0476 1.67867 85.0096 1.54 86.0843 1.54C87.4536 1.54 88.6583 1.75667 89.6983 2.19C90.7383 2.62333 91.6309 3.256 92.3763 4.088L89.7503 6.74C89.3169 6.23733 88.7883 5.83 88.1643 5.518C87.5576 5.18867 86.7863 5.024 85.8503 5.024C84.9663 5.024 84.3076 5.18 83.8743 5.492C83.4409 5.804 83.2243 6.23733 83.2243 6.792C83.2243 7.416 83.3889 7.86667 83.7183 8.144C84.0649 8.42133 84.6196 8.62067 85.3823 8.742L87.1763 9.028C89.0483 9.32267 90.4349 9.90333 91.3363 10.77C92.2376 11.6193 92.6883 12.8327 92.6883 14.41C92.6883 15.2767 92.5323 16.074 92.2203 16.802C91.9083 17.53 91.4489 18.154 90.8423 18.674C90.2529 19.194 89.5163 19.6013 88.6323 19.896C87.7483 20.1733 86.7429 20.312 85.6163 20.312ZM101.295 20.312C100.29 20.312 99.3882 20.1473 98.5909 19.818C97.8109 19.4887 97.1436 19.012 96.5889 18.388C96.0516 17.764 95.6356 17.01 95.3409 16.126C95.0462 15.242 94.8989 14.254 94.8989 13.162C94.8989 12.07 95.0462 11.082 95.3409 10.198C95.6356 9.314 96.0516 8.56867 96.5889 7.962C97.1436 7.338 97.8109 6.86133 98.5909 6.532C99.3882 6.20267 100.29 6.038 101.295 6.038C102.3 6.038 103.193 6.20267 103.973 6.532C104.77 6.86133 105.438 7.338 105.975 7.962C106.53 8.56867 106.954 9.314 107.249 10.198C107.544 11.082 107.691 12.07 107.691 13.162C107.691 14.254 107.544 15.242 107.249 16.126C106.954 17.01 106.53 17.764 105.975 18.388C105.438 19.012 104.77 19.4887 103.973 19.818C103.193 20.1473 102.3 20.312 101.295 20.312ZM101.295 17.27C102.058 17.27 102.647 17.036 103.063 16.568C103.479 16.1 103.687 15.4327 103.687 14.566V11.784C103.687 10.9173 103.479 10.25 103.063 9.782C102.647 9.314 102.058 9.08 101.295 9.08C100.532 9.08 99.9429 9.314 99.5269 9.782C99.1109 10.25 98.9029 10.9173 98.9029 11.784V14.566C98.9029 15.4327 99.1109 16.1 99.5269 16.568C99.9429 17.036 100.532 17.27 101.295 17.27ZM110.433 0.76H114.281V8.638H114.411C114.601 7.87533 115.035 7.25133 115.711 6.766C116.404 6.28067 117.193 6.038 118.077 6.038C119.81 6.038 121.119 6.64467 122.003 7.858C122.887 9.07133 123.329 10.8393 123.329 13.162C123.329 15.4847 122.887 17.2613 122.003 18.492C121.119 19.7053 119.81 20.312 118.077 20.312C117.626 20.312 117.201 20.2427 116.803 20.104C116.404 19.9827 116.04 19.8093 115.711 19.584C115.399 19.3413 115.13 19.064 114.905 18.752C114.679 18.4227 114.515 18.076 114.411 17.712H114.281V20H110.433V0.76ZM116.803 17.192C117.531 17.192 118.129 16.9407 118.597 16.438C119.082 15.918 119.325 15.2247 119.325 14.358V11.992C119.325 11.1253 119.082 10.4407 118.597 9.938C118.129 9.418 117.531 9.158 116.803 9.158C116.075 9.158 115.468 9.34 114.983 9.704C114.515 10.0507 114.281 10.536 114.281 11.16V15.19C114.281 15.814 114.515 16.308 114.983 16.672C115.468 17.0187 116.075 17.192 116.803 17.192ZM126.251 20V6.35H130.099V9.314H130.229C130.298 8.93267 130.42 8.56867 130.593 8.222C130.766 7.858 130.992 7.53733 131.269 7.26C131.564 6.98267 131.91 6.766 132.309 6.61C132.708 6.43667 133.176 6.35 133.713 6.35H134.389V9.938H133.427C132.3 9.938 131.46 10.0853 130.905 10.38C130.368 10.6747 130.099 11.2207 130.099 12.018V20H126.251ZM142.33 20.312C141.29 20.312 140.362 20.1473 139.548 19.818C138.733 19.4713 138.04 18.9947 137.468 18.388C136.913 17.764 136.488 17.01 136.194 16.126C135.916 15.242 135.778 14.254 135.778 13.162C135.778 12.0873 135.916 11.1167 136.194 10.25C136.471 9.366 136.878 8.612 137.416 7.988C137.97 7.364 138.646 6.88733 139.444 6.558C140.241 6.21133 141.151 6.038 142.174 6.038C143.3 6.038 144.262 6.22867 145.06 6.61C145.874 6.99133 146.533 7.50267 147.036 8.144C147.556 8.78533 147.928 9.53067 148.154 10.38C148.396 11.212 148.518 12.0873 148.518 13.006V14.15H139.756V14.358C139.756 15.2593 139.998 15.9787 140.484 16.516C140.969 17.036 141.732 17.296 142.772 17.296C143.569 17.296 144.219 17.14 144.722 16.828C145.224 16.4987 145.692 16.1087 146.126 15.658L148.05 18.05C147.443 18.7607 146.646 19.3153 145.658 19.714C144.687 20.1127 143.578 20.312 142.33 20.312ZM142.252 8.872C141.472 8.872 140.856 9.132 140.406 9.652C139.972 10.1547 139.756 10.8307 139.756 11.68V11.888H144.54V11.654C144.54 10.822 144.349 10.1547 143.968 9.652C143.604 9.132 143.032 8.872 142.252 8.872ZM162.918 20.312C161.913 20.312 161.011 20.1473 160.214 19.818C159.434 19.4887 158.767 19.012 158.212 18.388C157.675 17.764 157.259 17.01 156.964 16.126C156.669 15.242 156.522 14.254 156.522 13.162C156.522 12.07 156.669 11.082 156.964 10.198C157.259 9.314 157.675 8.56867 158.212 7.962C158.767 7.338 159.434 6.86133 160.214 6.532C161.011 6.20267 161.913 6.038 162.918 6.038C163.923 6.038 164.816 6.20267 165.596 6.532C166.393 6.86133 167.061 7.338 167.598 7.962C168.153 8.56867 168.577 9.314 168.872 10.198C169.167 11.082 169.314 12.07 169.314 13.162C169.314 14.254 169.167 15.242 168.872 16.126C168.577 17.01 168.153 17.764 167.598 18.388C167.061 19.012 166.393 19.4887 165.596 19.818C164.816 20.1473 163.923 20.312 162.918 20.312ZM162.918 17.27C163.681 17.27 164.27 17.036 164.686 16.568C165.102 16.1 165.31 15.4327 165.31 14.566V11.784C165.31 10.9173 165.102 10.25 164.686 9.782C164.27 9.314 163.681 9.08 162.918 9.08C162.155 9.08 161.566 9.314 161.15 9.782C160.734 10.25 160.526 10.9173 160.526 11.784V14.566C160.526 15.4327 160.734 16.1 161.15 16.568C161.566 17.036 162.155 17.27 162.918 17.27ZM82.0713 40.35H85.9193V42.638H86.0493C86.24 41.8753 86.6733 41.2513 87.3493 40.766C88.0427 40.2807 88.8313 40.038 89.7153 40.038C91.4487 40.038 92.7573 40.6447 93.6413 41.858C94.5253 43.0713 94.9673 44.8393 94.9673 47.162C94.9673 49.4847 94.5253 51.2613 93.6413 52.492C92.7573 53.7053 91.4487 54.312 89.7153 54.312C89.2647 54.312 88.84 54.2427 88.4413 54.104C88.0427 53.9827 87.6787 53.8093 87.3493 53.584C87.0373 53.3413 86.7687 53.064 86.5433 52.752C86.318 52.4227 86.1533 52.076 86.0493 51.712H85.9193V59.2H82.0713V40.35ZM88.4413 51.192C89.1693 51.192 89.7673 50.9407 90.2353 50.438C90.7207 49.918 90.9633 49.2247 90.9633 48.358V45.992C90.9633 45.1253 90.7207 44.4407 90.2353 43.938C89.7673 43.418 89.1693 43.158 88.4413 43.158C87.7133 43.158 87.1067 43.34 86.6213 43.704C86.1533 44.0507 85.9193 44.536 85.9193 45.16V49.19C85.9193 49.814 86.1533 50.308 86.6213 50.672C87.1067 51.0187 87.7133 51.192 88.4413 51.192ZM97.8897 54V40.35H101.738V43.314H101.868C101.937 42.9327 102.058 42.5687 102.232 42.222C102.405 41.858 102.63 41.5373 102.908 41.26C103.202 40.9827 103.549 40.766 103.948 40.61C104.346 40.4367 104.814 40.35 105.352 40.35H106.028V43.938H105.066C103.939 43.938 103.098 44.0853 102.544 44.38C102.006 44.6747 101.738 45.2207 101.738 46.018V54H97.8897ZM113.812 54.312C112.807 54.312 111.906 54.1473 111.108 53.818C110.328 53.4887 109.661 53.012 109.106 52.388C108.569 51.764 108.153 51.01 107.858 50.126C107.564 49.242 107.416 48.254 107.416 47.162C107.416 46.07 107.564 45.082 107.858 44.198C108.153 43.314 108.569 42.5687 109.106 41.962C109.661 41.338 110.328 40.8613 111.108 40.532C111.906 40.2027 112.807 40.038 113.812 40.038C114.818 40.038 115.71 40.2027 116.49 40.532C117.288 40.8613 117.955 41.338 118.492 41.962C119.047 42.5687 119.472 43.314 119.766 44.198C120.061 45.082 120.208 46.07 120.208 47.162C120.208 48.254 120.061 49.242 119.766 50.126C119.472 51.01 119.047 51.764 118.492 52.388C117.955 53.012 117.288 53.4887 116.49 53.818C115.71 54.1473 114.818 54.312 113.812 54.312ZM113.812 51.27C114.575 51.27 115.164 51.036 115.58 50.568C115.996 50.1 116.204 49.4327 116.204 48.566V45.784C116.204 44.9173 115.996 44.25 115.58 43.782C115.164 43.314 114.575 43.08 113.812 43.08C113.05 43.08 112.46 43.314 112.044 43.782C111.628 44.25 111.42 44.9173 111.42 45.784V48.566C111.42 49.4327 111.628 50.1 112.044 50.568C112.46 51.036 113.05 51.27 113.812 51.27ZM122.95 40.35H126.798V55.456C126.798 56.6693 126.495 57.5967 125.888 58.238C125.282 58.8793 124.302 59.2 122.95 59.2H120.922V56.21H122.95V40.35ZM124.874 38.894C124.094 38.894 123.522 38.7207 123.158 38.374C122.812 38.01 122.638 37.5507 122.638 36.996V36.424C122.638 35.8693 122.812 35.4187 123.158 35.072C123.522 34.708 124.094 34.526 124.874 34.526C125.654 34.526 126.218 34.708 126.564 35.072C126.928 35.4187 127.11 35.8693 127.11 36.424V36.996C127.11 37.5507 126.928 38.01 126.564 38.374C126.218 38.7207 125.654 38.894 124.874 38.894ZM136.084 54.312C135.044 54.312 134.116 54.1473 133.302 53.818C132.487 53.4713 131.794 52.9947 131.222 52.388C130.667 51.764 130.242 51.01 129.948 50.126C129.67 49.242 129.532 48.254 129.532 47.162C129.532 46.0873 129.67 45.1167 129.948 44.25C130.225 43.366 130.632 42.612 131.17 41.988C131.724 41.364 132.4 40.8873 133.198 40.558C133.995 40.2113 134.905 40.038 135.928 40.038C137.054 40.038 138.016 40.2287 138.814 40.61C139.628 40.9913 140.287 41.5027 140.79 42.144C141.31 42.7853 141.682 43.5307 141.908 44.38C142.15 45.212 142.272 46.0873 142.272 47.006V48.15H133.51V48.358C133.51 49.2593 133.752 49.9787 134.238 50.516C134.723 51.036 135.486 51.296 136.526 51.296C137.323 51.296 137.973 51.14 138.476 50.828C138.978 50.4987 139.446 50.1087 139.88 49.658L141.804 52.05C141.197 52.7607 140.4 53.3153 139.412 53.714C138.441 54.1127 137.332 54.312 136.084 54.312ZM136.006 42.872C135.226 42.872 134.61 43.132 134.16 43.652C133.726 44.1547 133.51 44.8307 133.51 45.68V45.888H138.294V45.654C138.294 44.822 138.103 44.1547 137.722 43.652C137.358 43.132 136.786 42.872 136.006 42.872ZM149.773 54C148.439 54 147.425 53.662 146.731 52.986C146.055 52.31 145.717 51.322 145.717 50.022V43.34H143.793V40.35H144.755C145.275 40.35 145.631 40.2287 145.821 39.986C146.012 39.726 146.107 39.362 146.107 38.894V36.658H149.565V40.35H152.269V43.34H149.565V51.01H152.061V54H149.773ZM160.379 54.312C159.374 54.312 158.472 54.1473 157.675 53.818C156.895 53.4887 156.228 53.012 155.673 52.388C155.136 51.764 154.72 51.01 154.425 50.126C154.13 49.242 153.983 48.254 153.983 47.162C153.983 46.07 154.13 45.082 154.425 44.198C154.72 43.314 155.136 42.5687 155.673 41.962C156.228 41.338 156.895 40.8613 157.675 40.532C158.472 40.2027 159.374 40.038 160.379 40.038C161.384 40.038 162.277 40.2027 163.057 40.532C163.854 40.8613 164.522 41.338 165.059 41.962C165.614 42.5687 166.038 43.314 166.333 44.198C166.628 45.082 166.775 46.07 166.775 47.162C166.775 48.254 166.628 49.242 166.333 50.126C166.038 51.01 165.614 51.764 165.059 52.388C164.522 53.012 163.854 53.4887 163.057 53.818C162.277 54.1473 161.384 54.312 160.379 54.312ZM160.379 51.27C161.142 51.27 161.731 51.036 162.147 50.568C162.563 50.1 162.771 49.4327 162.771 48.566V45.784C162.771 44.9173 162.563 44.25 162.147 43.782C161.731 43.314 161.142 43.08 160.379 43.08C159.616 43.08 159.027 43.314 158.611 43.782C158.195 44.25 157.987 44.9173 157.987 45.784V48.566C157.987 49.4327 158.195 50.1 158.611 50.568C159.027 51.036 159.616 51.27 160.379 51.27Z" fill="#FCFDFF"/>
<path fill-rule="evenodd" clip-rule="evenodd" d="M22.5 50C34.9264 50 45 39.9264 45 27.5C45 15.0736 34.9264 5 22.5 5C10.0736 5 0 15.0736 0 27.5C0 39.9264 10.0736 50 22.5 50ZM22.5 45.5C12.5589 45.5 4.5 37.4411 4.5 27.5C4.5 17.5589 12.5589 9.5 22.5 9.5C32.4411 9.5 40.5 17.5589 40.5 27.5C40.5 37.4411 32.4411 45.5 22.5 45.5ZM19.3574 26.776V31.768H23.2614V29.144C23.9867 29.016 24.6907 28.792 25.3734 28.472C26.056 28.1307 26.664 27.6933 27.1974 27.16C27.7307 26.6053 28.1467 25.9653 28.4454 25.24C28.7654 24.4933 28.9254 23.6507 28.9254 22.712C28.9254 21.752 28.7547 20.8773 28.4134 20.088C28.072 19.2987 27.592 18.6267 26.9734 18.072C26.3547 17.496 25.608 17.0587 24.7334 16.76C23.8587 16.44 22.8774 16.28 21.7894 16.28C20.7227 16.28 19.784 16.4293 18.9734 16.728C18.1627 17.0053 17.4694 17.3893 16.8934 17.88C16.3174 18.3493 15.848 18.8933 15.4854 19.512C15.1227 20.1307 14.8454 20.7707 14.6534 21.432L18.0774 22.84C18.312 21.944 18.7174 21.2187 19.2934 20.664C19.8907 20.088 20.6694 19.8 21.6294 19.8C22.5254 19.8 23.24 20.0453 23.7734 20.536C24.3067 21.0267 24.5734 21.72 24.5734 22.616V23.064C24.5734 24.3013 24.1254 25.2187 23.2294 25.816C22.3547 26.392 21.064 26.712 19.3574 26.776ZM19.3894 38.744C19.7947 39.1707 20.4454 39.384 21.3414 39.384C22.2587 39.384 22.92 39.1707 23.3254 38.744C23.7307 38.3173 23.9334 37.7733 23.9334 37.112V36.472C23.9334 35.8107 23.7307 35.2667 23.3254 34.84C22.92 34.4133 22.2587 34.2 21.3414 34.2C20.4454 34.2 19.7947 34.4133 19.3894 34.84C18.984 35.2667 18.7814 35.8107 18.7814 36.472V37.112C18.7814 37.7733 18.984 38.3173 19.3894 38.744Z" fill="#F0972C"/>
</svg>
