<svg width="208" height="54" viewBox="0 0 208 54" fill="none" xmlns="http://www.w3.org/2000/svg">
<path d="M94.8281 36.312C93.5975 36.312 92.4881 36.1213 91.5001 35.74C90.5121 35.3413 89.6715 34.7607 88.9781 33.998C88.2848 33.218 87.7475 32.256 87.3661 31.112C86.9848 29.9507 86.7941 28.5987 86.7941 27.056C86.7941 25.5307 86.9848 24.1787 87.3661 23C87.7475 21.804 88.2848 20.8073 88.9781 20.01C89.6715 19.1953 90.5121 18.58 91.5001 18.164C92.4881 17.748 93.5975 17.54 94.8281 17.54C96.5095 17.54 97.8961 17.8867 98.9881 18.58C100.08 19.256 100.955 20.3307 101.614 21.804L98.2081 23.572C97.9655 22.8093 97.5841 22.2027 97.0641 21.752C96.5615 21.284 95.8161 21.05 94.8281 21.05C93.6668 21.05 92.7308 21.4313 92.0201 22.194C91.3268 22.9393 90.9801 24.0313 90.9801 25.47V28.382C90.9801 29.8207 91.3268 30.9213 92.0201 31.684C92.7308 32.4293 93.6668 32.802 94.8281 32.802C95.7988 32.802 96.5701 32.542 97.1421 32.022C97.7315 31.4847 98.1648 30.8433 98.4421 30.098L101.666 31.97C100.99 33.3567 100.097 34.4313 98.9881 35.194C97.8961 35.9393 96.5095 36.312 94.8281 36.312ZM108.046 36C106.728 36 105.758 35.6793 105.134 35.038C104.527 34.3967 104.224 33.4693 104.224 32.256V16.76H108.072V33.01H109.788V36H108.046ZM117.633 36.312C116.627 36.312 115.726 36.1473 114.929 35.818C114.149 35.4887 113.481 35.012 112.927 34.388C112.389 33.764 111.973 33.01 111.679 32.126C111.384 31.242 111.237 30.254 111.237 29.162C111.237 28.07 111.384 27.082 111.679 26.198C111.973 25.314 112.389 24.5687 112.927 23.962C113.481 23.338 114.149 22.8613 114.929 22.532C115.726 22.2027 116.627 22.038 117.633 22.038C118.638 22.038 119.531 22.2027 120.311 22.532C121.108 22.8613 121.775 23.338 122.313 23.962C122.867 24.5687 123.292 25.314 123.587 26.198C123.881 27.082 124.029 28.07 124.029 29.162C124.029 30.254 123.881 31.242 123.587 32.126C123.292 33.01 122.867 33.764 122.313 34.388C121.775 35.012 121.108 35.4887 120.311 35.818C119.531 36.1473 118.638 36.312 117.633 36.312ZM117.633 33.27C118.395 33.27 118.985 33.036 119.401 32.568C119.817 32.1 120.025 31.4327 120.025 30.566V27.784C120.025 26.9173 119.817 26.25 119.401 25.782C118.985 25.314 118.395 25.08 117.633 25.08C116.87 25.08 116.281 25.314 115.865 25.782C115.449 26.25 115.241 26.9173 115.241 27.784V30.566C115.241 31.4327 115.449 32.1 115.865 32.568C116.281 33.036 116.87 33.27 117.633 33.27ZM132.283 36.312C131.26 36.312 130.35 36.1473 129.553 35.818C128.755 35.4713 128.088 34.9947 127.551 34.388C127.013 33.764 126.606 33.01 126.329 32.126C126.051 31.242 125.913 30.254 125.913 29.162C125.913 28.07 126.051 27.0907 126.329 26.224C126.606 25.34 127.013 24.586 127.551 23.962C128.088 23.338 128.755 22.8613 129.553 22.532C130.35 22.2027 131.26 22.038 132.283 22.038C133.669 22.038 134.822 22.35 135.741 22.974C136.677 23.598 137.344 24.4733 137.743 25.6L134.623 26.952C134.501 26.432 134.25 25.99 133.869 25.626C133.487 25.262 132.959 25.08 132.283 25.08C131.503 25.08 130.913 25.34 130.515 25.86C130.116 26.3627 129.917 27.0473 129.917 27.914V30.462C129.917 31.3287 130.116 32.0133 130.515 32.516C130.913 33.0187 131.503 33.27 132.283 33.27C132.976 33.27 133.522 33.088 133.921 32.724C134.337 32.3427 134.64 31.8487 134.831 31.242L137.821 32.542C137.37 33.842 136.668 34.7953 135.715 35.402C134.779 36.0087 133.635 36.312 132.283 36.312ZM140.202 16.76H144.05V28.122H144.206L145.896 25.6L148.626 22.35H152.89L148.34 27.576L153.41 36H148.834L145.766 30.228L144.05 32.152V36H140.202V16.76ZM157.132 20.894C156.352 20.894 155.78 20.7207 155.416 20.374C155.069 20.01 154.896 19.5507 154.896 18.996V18.424C154.896 17.8693 155.069 17.4187 155.416 17.072C155.78 16.708 156.352 16.526 157.132 16.526C157.912 16.526 158.475 16.708 158.822 17.072C159.186 17.4187 159.368 17.8693 159.368 18.424V18.996C159.368 19.5507 159.186 20.01 158.822 20.374C158.475 20.7207 157.912 20.894 157.132 20.894ZM155.208 22.35H159.056V36H155.208V22.35ZM162.648 36V22.35H166.496V24.664H166.652C166.894 23.9533 167.319 23.338 167.926 22.818C168.532 22.298 169.373 22.038 170.448 22.038C171.852 22.038 172.909 22.506 173.62 23.442C174.348 24.378 174.712 25.7127 174.712 27.446V36H170.864V27.758C170.864 26.874 170.725 26.224 170.448 25.808C170.17 25.3747 169.676 25.158 168.966 25.158C168.654 25.158 168.35 25.2013 168.056 25.288C167.761 25.3573 167.492 25.4787 167.25 25.652C167.024 25.8253 166.842 26.042 166.704 26.302C166.565 26.5447 166.496 26.8307 166.496 27.16V36H162.648ZM178.136 16.76H181.984V24.664H182.14C182.382 23.9533 182.807 23.338 183.414 22.818C184.02 22.298 184.861 22.038 185.936 22.038C187.34 22.038 188.397 22.506 189.108 23.442C189.836 24.378 190.2 25.7127 190.2 27.446V36H186.352V27.758C186.352 26.874 186.213 26.224 185.936 25.808C185.658 25.3747 185.164 25.158 184.454 25.158C184.142 25.158 183.838 25.2013 183.544 25.288C183.249 25.3573 182.98 25.4787 182.738 25.652C182.512 25.8253 182.33 26.042 182.192 26.302C182.053 26.5447 181.984 26.8307 181.984 27.16V36H178.136V16.76ZM199.162 36.312C198.157 36.312 197.255 36.1473 196.458 35.818C195.678 35.4887 195.011 35.012 194.456 34.388C193.919 33.764 193.503 33.01 193.208 32.126C192.913 31.242 192.766 30.254 192.766 29.162C192.766 28.07 192.913 27.082 193.208 26.198C193.503 25.314 193.919 24.5687 194.456 23.962C195.011 23.338 195.678 22.8613 196.458 22.532C197.255 22.2027 198.157 22.038 199.162 22.038C200.167 22.038 201.06 22.2027 201.84 22.532C202.637 22.8613 203.305 23.338 203.842 23.962C204.397 24.5687 204.821 25.314 205.116 26.198C205.411 27.082 205.558 28.07 205.558 29.162C205.558 30.254 205.411 31.242 205.116 32.126C204.821 33.01 204.397 33.764 203.842 34.388C203.305 35.012 202.637 35.4887 201.84 35.818C201.06 36.1473 200.167 36.312 199.162 36.312ZM199.162 33.27C199.925 33.27 200.514 33.036 200.93 32.568C201.346 32.1 201.554 31.4327 201.554 30.566V27.784C201.554 26.9173 201.346 26.25 200.93 25.782C200.514 25.314 199.925 25.08 199.162 25.08C198.399 25.08 197.81 25.314 197.394 25.782C196.978 26.25 196.77 26.9173 196.77 27.784V30.566C196.77 31.4327 196.978 32.1 197.394 32.568C197.81 33.036 198.399 33.27 199.162 33.27Z" fill="#FCFDFF"/>
<path fill-rule="evenodd" clip-rule="evenodd" d="M0 8C0 5.23858 2.23858 3 5 3H31.48C34.2414 3 36.48 5.23857 36.48 8V24.8207C36.48 26.201 35.361 27.32 33.9807 27.32C33.9386 24.4037 33.3454 22.1221 32.2011 20.475C31.0131 18.765 29.1861 17.91 26.7201 17.91C24.2541 17.91 22.4271 18.765 21.2391 20.475C20.0948 22.1221 19.5016 24.4037 19.4595 27.32H17.7913C17.7491 24.4037 17.156 22.1221 16.0117 20.475C14.8237 18.765 12.9967 17.91 10.5307 17.91C8.06466 17.91 6.23766 18.765 5.04966 20.475C3.90538 22.1221 3.31218 24.4037 3.27008 27.32C1.46406 27.32 0 25.8559 0 24.0499V8ZM7.66866 27.32H3.27008C3.26847 27.4314 3.26766 27.5437 3.26766 27.657C3.26766 28.0632 3.27801 28.4576 3.29871 28.84C1.47688 28.84 0 30.3169 0 32.1387V48.16C0 50.9214 2.23858 53.16 5 53.16H31.48C34.2414 53.16 36.48 50.9214 36.48 48.16V31.3679C36.48 29.9718 35.3482 28.84 33.9521 28.84C33.9728 28.4576 33.9831 28.0632 33.9831 27.657C33.9831 27.5437 33.9823 27.4314 33.9807 27.32H29.5821V25.875C29.5821 24.435 29.3751 23.319 28.9611 22.527C28.5471 21.735 27.8001 21.339 26.7201 21.339C25.6401 21.339 24.8931 21.735 24.4791 22.527C24.0651 23.319 23.8581 24.435 23.8581 25.875V27.32H19.4595C19.4579 27.4314 19.4571 27.5437 19.4571 27.657C19.4571 28.0632 19.4675 28.4576 19.4882 28.84H17.7626C17.7833 28.4576 17.7937 28.0632 17.7937 27.657C17.7937 27.5437 17.7929 27.4314 17.7913 27.32H13.3927V25.875C13.3927 24.435 13.1857 23.319 12.7717 22.527C12.3577 21.735 11.6107 21.339 10.5307 21.339C9.45066 21.339 8.70366 21.735 8.28966 22.527C7.87566 23.319 7.66866 24.435 7.66866 25.875V27.32ZM7.66866 28.84H3.29871C3.43481 31.355 4.01846 33.3547 5.04966 34.839C6.23766 36.549 8.06466 37.404 10.5307 37.404C12.9967 37.404 14.8237 36.549 16.0117 34.839C17.0429 33.3547 17.6265 31.355 17.7626 28.84H13.3927V27.32H7.66866V28.84ZM7.66866 28.84H13.3927V29.439C13.3927 30.879 13.1857 31.995 12.7717 32.787C12.3577 33.579 11.6107 33.975 10.5307 33.975C9.45066 33.975 8.70366 33.579 8.28966 32.787C7.87566 31.995 7.66866 30.879 7.66866 29.439V28.84ZM23.8581 28.84V27.32H29.5821V28.84H23.8581ZM23.8581 28.84V29.439C23.8581 30.879 24.0651 31.995 24.4791 32.787C24.8931 33.579 25.6401 33.975 26.7201 33.975C27.8001 33.975 28.5471 33.579 28.9611 32.787C29.3751 31.995 29.5821 30.879 29.5821 29.439V28.84H33.9521C33.816 31.355 33.2323 33.3547 32.2011 34.839C31.0131 36.549 29.1861 37.404 26.7201 37.404C24.2541 37.404 22.4271 36.549 21.2391 34.839C20.2079 33.3547 19.6243 31.355 19.4882 28.84H23.8581ZM76 8C76 5.23858 73.7614 3 71 3H44.52C41.7586 3 39.52 5.23857 39.52 8V24.8102C39.52 26.1963 40.6437 27.32 42.0298 27.32C42.0282 27.4314 42.0274 27.5437 42.0274 27.657C42.0274 28.0632 42.0378 28.4576 42.0585 28.84C40.6565 28.84 39.52 29.9765 39.52 31.3785V48.16C39.52 50.9214 41.7586 53.16 44.52 53.16H71C73.7614 53.16 76 50.9214 76 48.16V32.1282C76 30.3122 74.5278 28.84 72.7118 28.84C72.7325 28.4576 72.7429 28.0632 72.7429 27.657C72.7429 27.5437 72.7421 27.4314 72.7405 27.32C74.5407 27.32 76 25.8607 76 24.0605V8ZM68.3419 27.32H72.7405C72.6984 24.4037 72.1052 22.1221 70.9609 20.475C69.7729 18.765 67.9459 17.91 65.4799 17.91C63.0139 17.91 61.1869 18.765 59.9989 20.475C58.8546 22.1221 58.2614 24.4037 58.2193 27.32H56.551C56.5089 24.4037 55.9157 22.1221 54.7714 20.475C53.5834 18.765 51.7564 17.91 49.2904 17.91C46.8244 17.91 44.9974 18.765 43.8094 20.475C42.6651 22.1221 42.0719 24.4037 42.0298 27.32H46.4284V28.84H42.0585C42.1946 31.355 42.7782 33.3547 43.8094 34.839C44.9974 36.549 46.8244 37.404 49.2904 37.404C51.7564 37.404 53.5834 36.549 54.7714 34.839C55.8026 33.3547 56.3863 31.355 56.5224 28.84H58.2479C58.384 31.355 58.9677 33.3547 59.9989 34.839C61.1869 36.549 63.0139 37.404 65.4799 37.404C67.9459 37.404 69.7729 36.549 70.9609 34.839C71.9921 33.3547 72.5757 31.355 72.7118 28.84H68.3419V27.32ZM62.6179 27.32H58.2193C58.2177 27.4314 58.2169 27.5437 58.2169 27.657C58.2169 28.0632 58.2272 28.4576 58.2479 28.84H62.6179V29.439C62.6179 30.879 62.8249 31.995 63.2389 32.787C63.6529 33.579 64.3999 33.975 65.4799 33.975C66.5599 33.975 67.3069 33.579 67.7209 32.787C68.1349 31.995 68.3419 30.879 68.3419 29.439V28.84H62.6179V27.32ZM62.6179 27.32H68.3419V25.875C68.3419 24.435 68.1349 23.319 67.7209 22.527C67.3069 21.735 66.5599 21.339 65.4799 21.339C64.3999 21.339 63.6529 21.735 63.2389 22.527C62.8249 23.319 62.6179 24.435 62.6179 25.875V27.32ZM52.1524 28.84V29.439C52.1524 30.879 51.9454 31.995 51.5314 32.787C51.1174 33.579 50.3704 33.975 49.2904 33.975C48.2104 33.975 47.4634 33.579 47.0494 32.787C46.6354 31.995 46.4284 30.879 46.4284 29.439V28.84H52.1524ZM52.1524 28.84V27.32H56.551C56.5526 27.4314 56.5534 27.5437 56.5534 27.657C56.5534 28.0632 56.5431 28.4576 56.5224 28.84H52.1524ZM52.1524 27.32H46.4284V25.875C46.4284 24.435 46.6354 23.319 47.0494 22.527C47.4634 21.735 48.2104 21.339 49.2904 21.339C50.3704 21.339 51.1174 21.735 51.5314 22.527C51.9454 23.319 52.1524 24.435 52.1524 25.875V27.32Z" fill="#F0972C"/>
</svg>
