<svg width="64" height="63" viewBox="0 0 64 63" fill="none" xmlns="http://www.w3.org/2000/svg">
<path fill-rule="evenodd" clip-rule="evenodd" d="M40 5H24C13.5066 5 5 13.5066 5 24V39C5 49.4934 13.5066 58 24 58H40C50.4934 58 59 49.4934 59 39V24C59 13.5066 50.4934 5 40 5ZM24 0C10.7452 0 0 10.7452 0 24V39C0 52.2548 10.7452 63 24 63H40C53.2548 63 64 52.2548 64 39V24C64 10.7452 53.2548 0 40 0H24ZM32.2473 20.9311H31.7531C25.916 20.9311 21.1841 25.6629 21.1841 31.5C21.1841 37.3371 25.916 42.069 31.753 42.069H32.2473C38.0844 42.069 42.8163 37.3371 42.8163 31.5C42.8163 25.6629 38.0844 20.9311 32.2473 20.9311ZM31.7531 15.9311C23.1546 15.9311 16.1841 22.9015 16.1841 31.5C16.1841 40.0985 23.1545 47.069 31.753 47.069H32.2473C40.8458 47.069 47.8163 40.0985 47.8163 31.5C47.8163 22.9015 40.8458 15.9311 32.2473 15.9311H31.7531ZM49 20C51.7614 20 54 17.7614 54 15C54 12.2386 51.7614 10 49 10C46.2386 10 44 12.2386 44 15C44 17.7614 46.2386 20 49 20Z" fill="#F0972C"/>
</svg>
