<svg width="64" height="63" viewBox="0 0 64 63" fill="none" xmlns="http://www.w3.org/2000/svg">
<path fill-rule="evenodd" clip-rule="evenodd" d="M24 0C10.7452 0 0 10.7452 0 24V39C0 52.2548 10.7452 63 24 63H40C53.2548 63 64 52.2548 64 39V24C64 10.7452 53.2548 0 40 0H24ZM10.6605 16.616C11.6658 17.5173 12.9485 17.968 14.5085 17.968C16.0338 17.968 17.2818 17.5173 18.2525 16.616C19.2578 15.68 19.7605 14.536 19.7605 13.184C19.7605 11.7973 19.2578 10.6533 18.2525 9.752C17.2818 8.816 16.0338 8.348 14.5085 8.348C12.9485 8.348 11.6658 8.816 10.6605 9.752C9.68983 10.6533 9.2045 11.7973 9.2045 13.184C9.2045 14.536 9.68983 15.68 10.6605 16.616ZM18.9285 50V20.984H10.0365V50H18.9285ZM51.1644 24C49.1538 21.7813 46.4498 20.672 43.0524 20.672C41.1458 20.672 39.4298 21.0533 37.9044 21.816C36.3791 22.544 35.1658 23.5493 34.2644 24.832V20.984H25.3724V50H34.2644V34.244C34.2644 32.3027 34.7671 30.7947 35.7724 29.72C36.7778 28.6453 38.1298 28.108 39.8284 28.108C41.5271 28.108 42.8791 28.6453 43.8844 29.72C44.8898 30.7947 45.3924 32.3027 45.3924 34.244V50H54.2324V33.048C54.2324 29.2 53.2098 26.184 51.1644 24Z" fill="#F0972C"/>
</svg>
