<svg width="290" height="109" viewBox="0 0 290 109" fill="none" xmlns="http://www.w3.org/2000/svg">
<path d="M151.177 44.664V60.536C151.177 61.56 151.006 62.4987 150.665 63.352C150.345 64.184 149.865 64.8987 149.225 65.496C148.585 66.072 147.806 66.5307 146.889 66.872C145.993 67.192 144.969 67.352 143.817 67.352C142.708 67.352 141.726 67.2027 140.873 66.904C140.041 66.6053 139.316 66.1787 138.697 65.624C138.1 65.0693 137.609 64.408 137.225 63.64C136.841 62.872 136.574 62.0187 136.425 61.08L140.969 60.184C141.332 62.1253 142.26 63.096 143.753 63.096C144.457 63.096 145.054 62.872 145.545 62.424C146.057 61.976 146.313 61.272 146.313 60.312V48.568H139.529V44.664H151.177ZM162.524 67.384C161.287 67.384 160.177 67.1813 159.196 66.776C158.236 66.3707 157.415 65.784 156.732 65.016C156.071 64.248 155.559 63.32 155.196 62.232C154.833 61.144 154.652 59.928 154.652 58.584C154.652 57.24 154.833 56.024 155.196 54.936C155.559 53.848 156.071 52.9307 156.732 52.184C157.415 51.416 158.236 50.8293 159.196 50.424C160.177 50.0187 161.287 49.816 162.524 49.816C163.761 49.816 164.86 50.0187 165.82 50.424C166.801 50.8293 167.623 51.416 168.284 52.184C168.967 52.9307 169.489 53.848 169.852 54.936C170.215 56.024 170.396 57.24 170.396 58.584C170.396 59.928 170.215 61.144 169.852 62.232C169.489 63.32 168.967 64.248 168.284 65.016C167.623 65.784 166.801 66.3707 165.82 66.776C164.86 67.1813 163.761 67.384 162.524 67.384ZM162.524 63.64C163.463 63.64 164.188 63.352 164.7 62.776C165.212 62.2 165.468 61.3787 165.468 60.312V56.888C165.468 55.8213 165.212 55 164.7 54.424C164.188 53.848 163.463 53.56 162.524 53.56C161.585 53.56 160.86 53.848 160.348 54.424C159.836 55 159.58 55.8213 159.58 56.888V60.312C159.58 61.3787 159.836 62.2 160.348 62.776C160.86 63.352 161.585 63.64 162.524 63.64ZM173.77 43.32H178.506V53.016H178.666C178.901 52.0773 179.434 51.3093 180.266 50.712C181.12 50.1147 182.09 49.816 183.178 49.816C185.312 49.816 186.922 50.5627 188.01 52.056C189.098 53.5493 189.642 55.7253 189.642 58.584C189.642 61.4427 189.098 63.6293 188.01 65.144C186.922 66.6373 185.312 67.384 183.178 67.384C182.624 67.384 182.101 67.2987 181.61 67.128C181.12 66.9787 180.672 66.7653 180.266 66.488C179.882 66.1893 179.552 65.848 179.274 65.464C178.997 65.0587 178.794 64.632 178.666 64.184H178.506V67H173.77V43.32ZM181.61 63.544C182.506 63.544 183.242 63.2347 183.818 62.616C184.416 61.976 184.714 61.1227 184.714 60.056V57.144C184.714 56.0773 184.416 55.2347 183.818 54.616C183.242 53.976 182.506 53.656 181.61 53.656C180.714 53.656 179.968 53.88 179.37 54.328C178.794 54.7547 178.506 55.352 178.506 56.12V61.08C178.506 61.848 178.794 62.456 179.37 62.904C179.968 63.3307 180.714 63.544 181.61 63.544ZM195.607 48.408C194.647 48.408 193.943 48.1947 193.495 47.768C193.068 47.32 192.855 46.7547 192.855 46.072V45.368C192.855 44.6853 193.068 44.1307 193.495 43.704C193.943 43.256 194.647 43.032 195.607 43.032C196.567 43.032 197.26 43.256 197.687 43.704C198.135 44.1307 198.359 44.6853 198.359 45.368V46.072C198.359 46.7547 198.135 47.32 197.687 47.768C197.26 48.1947 196.567 48.408 195.607 48.408ZM193.239 50.2H197.975V67H193.239V50.2ZM202.395 67V50.2H207.131V53.048H207.323C207.622 52.1733 208.145 51.416 208.891 50.776C209.638 50.136 210.673 49.816 211.995 49.816C213.723 49.816 215.025 50.392 215.899 51.544C216.795 52.696 217.243 54.3387 217.243 56.472V67H212.507V56.856C212.507 55.768 212.337 54.968 211.995 54.456C211.654 53.9227 211.046 53.656 210.171 53.656C209.787 53.656 209.414 53.7093 209.051 53.816C208.689 53.9013 208.358 54.0507 208.059 54.264C207.782 54.4773 207.558 54.744 207.387 55.064C207.217 55.3627 207.131 55.7147 207.131 56.12V67H202.395ZM221.458 43.32H226.194V53.048H226.386C226.685 52.1733 227.207 51.416 227.954 50.776C228.701 50.136 229.735 49.816 231.058 49.816C232.786 49.816 234.087 50.392 234.962 51.544C235.858 52.696 236.306 54.3387 236.306 56.472V67H231.57V56.856C231.57 55.768 231.399 54.968 231.058 54.456C230.717 53.9227 230.109 53.656 229.234 53.656C228.85 53.656 228.477 53.7093 228.114 53.816C227.751 53.9013 227.421 54.0507 227.122 54.264C226.845 54.4773 226.621 54.744 226.45 55.064C226.279 55.3627 226.194 55.7147 226.194 56.12V67H221.458V43.32ZM247.336 67.384C246.099 67.384 244.99 67.1813 244.008 66.776C243.048 66.3707 242.227 65.784 241.544 65.016C240.883 64.248 240.371 63.32 240.008 62.232C239.646 61.144 239.464 59.928 239.464 58.584C239.464 57.24 239.646 56.024 240.008 54.936C240.371 53.848 240.883 52.9307 241.544 52.184C242.227 51.416 243.048 50.8293 244.008 50.424C244.99 50.0187 246.099 49.816 247.336 49.816C248.574 49.816 249.672 50.0187 250.632 50.424C251.614 50.8293 252.435 51.416 253.096 52.184C253.779 52.9307 254.302 53.848 254.664 54.936C255.027 56.024 255.208 57.24 255.208 58.584C255.208 59.928 255.027 61.144 254.664 62.232C254.302 63.32 253.779 64.248 253.096 65.016C252.435 65.784 251.614 66.3707 250.632 66.776C249.672 67.1813 248.574 67.384 247.336 67.384ZM247.336 63.64C248.275 63.64 249 63.352 249.512 62.776C250.024 62.2 250.28 61.3787 250.28 60.312V56.888C250.28 55.8213 250.024 55 249.512 54.424C249 53.848 248.275 53.56 247.336 53.56C246.398 53.56 245.672 53.848 245.16 54.424C244.648 55 244.392 55.8213 244.392 56.888V60.312C244.392 61.3787 244.648 62.2 245.16 62.776C245.672 63.352 246.398 63.64 247.336 63.64Z" fill="#FCFDFF"/>
<path d="M104 44.5C104 56.9264 93.9265 67 81.5001 67C69.0737 67 59.0001 56.9264 59.0001 44.5C59.0001 32.0736 69.0737 22 81.5001 22C93.9265 22 104 32.0736 104 44.5Z" fill="#F02C2C"/>
<path fill-rule="evenodd" clip-rule="evenodd" d="M66.6243 30.7773C66.7538 32.4938 68.8471 33.2556 70.0496 32.024L75.8772 26.0555L79.6776 34.4663C80.3864 36.0349 82.614 36.0349 83.3228 34.4663L87.6865 24.8085L94.7316 32.024C95.9341 33.2557 98.0274 32.4938 98.1569 30.7773L98.2547 29.482C94.1353 24.8893 88.1551 22 81.5 22C75.6894 22 70.3933 24.2026 66.401 27.8183L66.6243 30.7773Z" fill="#0EB33D"/>
<path fill-rule="evenodd" clip-rule="evenodd" d="M73 46C73 48.2091 72.1046 50 71 50C69.8954 50 69 48.2091 69 46C69 43.7909 69.8954 42 71 42C72.1046 42 73 43.7909 73 46ZM89 46C89 48.2091 88.1046 50 87 50C85.8954 50 85 48.2091 85 46C85 43.7909 85.8954 42 87 42C88.1046 42 89 43.7909 89 46ZM79.3626 56C79.5771 56 79.753 56.1743 79.7316 56.3878C79.713 56.5735 79.6811 56.7568 79.6364 56.9366C79.7854 57.4078 80.0461 57.8413 80.4021 58.1973C80.9848 58.78 81.7752 59.1074 82.5994 59.1074C83.4235 59.1074 84.2139 58.78 84.7966 58.1973C85.2873 57.7066 85.5969 57.0687 85.6825 56.3874C85.7093 56.1746 85.8807 56 86.0952 56C86.3097 56 86.4856 56.1743 86.4642 56.3878C86.3752 57.2755 85.9824 58.1101 85.3459 58.7466C84.6175 59.475 83.6295 59.8843 82.5994 59.8843C81.5692 59.8843 80.5812 59.475 79.8528 58.7466C79.6095 58.5033 79.4018 58.231 79.2331 57.9379C79.0643 58.231 78.8567 58.5033 78.6134 58.7466C77.8849 59.475 76.8969 59.8843 75.8668 59.8843C74.8366 59.8843 73.8486 59.475 73.1202 58.7466C72.4837 58.1101 72.091 57.2755 72.0019 56.3878C71.9805 56.1743 72.1564 56 72.371 56C72.5855 56 72.7569 56.1746 72.7836 56.3874C72.8692 57.0687 73.1788 57.7066 73.6695 58.1973C74.2523 58.78 75.0426 59.1074 75.8668 59.1074C76.6909 59.1074 77.4813 58.78 78.064 58.1973C78.42 57.8413 78.6807 57.4079 78.8297 56.9366C78.785 56.7568 78.7531 56.5735 78.7345 56.3878C78.7131 56.1743 78.889 56 79.1035 56C79.149 56 79.1925 56.0078 79.2331 56.0222C79.2737 56.0078 79.3172 56 79.3626 56Z" fill="#C20606"/>
<ellipse cx="81.5001" cy="44.5" rx="22.5" ry="22.5" fill="url(#paint0_linear)"/>
<path d="M81.2607 71.9312C83.6531 68.6251 81.291 64 77.21 64H47.7496C46.3189 64 44.9568 64.6128 44.0078 65.6834L33.3715 77.6835C30.512 80.9095 32.8023 86 37.1132 86H68.5264C70.1302 86 71.6368 85.2306 72.577 83.9312L81.2607 71.9312Z" fill="#EEAB5A"/>
<path d="M21.4725 45.4331C21.2185 42.5118 23.5214 40 26.4537 40H62.416C65.0095 40 67.1725 41.9831 67.3972 44.5669L70.5276 80.5669C70.7816 83.4882 68.4788 86 65.5464 86H29.5841C26.9906 86 24.8276 84.017 24.6029 81.4332L21.4725 45.4331Z" fill="#F0972C"/>
<defs>
<linearGradient id="paint0_linear" x1="67.0001" y1="63" x2="80.5001" y2="47.5" gradientUnits="userSpaceOnUse">
<stop stop-color="white" stop-opacity="0.5"/>
<stop offset="1" stop-color="white" stop-opacity="0"/>
</linearGradient>
</defs>
</svg>
