<svg width="190" height="62" viewBox="0 0 190 62" fill="none" xmlns="http://www.w3.org/2000/svg">
<path d="M47.4239 5.39131C47.6521 2.48459 45.3549 0 42.4392 0H10.9422C8.33253 0 6.16177 2.00703 5.95754 4.60869L3.13145 40.6087C2.90327 43.5154 5.20045 46 8.11612 46H39.6131C42.2228 46 44.3936 43.993 44.5978 41.3913L47.4239 5.39131Z" fill="#F0972C"/>
<path d="M44.9974 5.13247C45.074 3.97831 44.1585 3 43.0018 3H10.8748C9.83185 3 8.96396 3.8015 8.88114 4.84119L6.49144 34.8412C6.39876 36.0047 7.31794 37 8.48512 37H41.0103C42.0635 37 42.9362 36.1833 43.0059 35.1325L44.9974 5.13247Z" fill="#FCFDFF"/>
<path d="M6.20971 47.0532C3.67493 43.7659 6.0182 39 10.1693 39H42.0661C43.4418 39 44.7566 39.5667 45.7011 40.5668L57.035 52.5668C60.0466 55.7554 57.786 61 53.4 61H19.4223C17.872 61 16.4094 60.2809 15.4628 59.0532L6.20971 47.0532Z" fill="#EEAB5A"/>
<rect width="29.7917" height="4" rx="2" transform="matrix(-1 0 0 1 43.3333 7)" fill="#E8E8E8"/>
<rect width="29.7917" height="4" rx="2" transform="matrix(-1 0 0 1 42.4305 15)" fill="#E8E8E8"/>
<rect width="29.7917" height="4" rx="2" transform="matrix(-1 0 0 1 40.625 22)" fill="#E8E8E8"/>
<rect width="29.7917" height="4" rx="2" transform="matrix(-1 0 0 1 40.625 29)" fill="#E8E8E8"/>
<path d="M120.328 10.092H120.25L118.924 12.744L115.388 19.166L111.93 12.77L110.552 9.91H110.474V22H106.756V3.852H110.942L115.388 12.354H115.44L119.834 3.852H124.046V22H120.328V10.092ZM133.545 22.312C132.505 22.312 131.577 22.1473 130.763 21.818C129.948 21.4713 129.255 20.9947 128.683 20.388C128.128 19.764 127.703 19.01 127.409 18.126C127.131 17.242 126.993 16.254 126.993 15.162C126.993 14.0873 127.131 13.1167 127.409 12.25C127.686 11.366 128.093 10.612 128.631 9.988C129.185 9.364 129.861 8.88733 130.659 8.558C131.456 8.21133 132.366 8.038 133.389 8.038C134.515 8.038 135.477 8.22867 136.275 8.61C137.089 8.99133 137.748 9.50267 138.251 10.144C138.771 10.7853 139.143 11.5307 139.369 12.38C139.611 13.212 139.733 14.0873 139.733 15.006V16.15H130.971V16.358C130.971 17.2593 131.213 17.9787 131.699 18.516C132.184 19.036 132.947 19.296 133.987 19.296C134.784 19.296 135.434 19.14 135.937 18.828C136.439 18.4987 136.907 18.1087 137.341 17.658L139.265 20.05C138.658 20.7607 137.861 21.3153 136.873 21.714C135.902 22.1127 134.793 22.312 133.545 22.312ZM133.467 10.872C132.687 10.872 132.071 11.132 131.621 11.652C131.187 12.1547 130.971 12.8307 130.971 13.68V13.888H135.755V13.654C135.755 12.822 135.564 12.1547 135.183 11.652C134.819 11.132 134.247 10.872 133.467 10.872ZM150.51 19.712H150.38C150.259 20.0587 150.094 20.388 149.886 20.7C149.696 21.012 149.444 21.2893 149.132 21.532C148.82 21.7747 148.448 21.9653 148.014 22.104C147.598 22.2427 147.113 22.312 146.558 22.312C145.154 22.312 144.088 21.8527 143.36 20.934C142.65 19.998 142.294 18.6633 142.294 16.93V8.35H146.142V16.592C146.142 17.424 146.29 18.0653 146.584 18.516C146.879 18.9667 147.382 19.192 148.092 19.192C148.387 19.192 148.682 19.1487 148.976 19.062C149.271 18.9753 149.531 18.854 149.756 18.698C149.982 18.5247 150.164 18.3167 150.302 18.074C150.441 17.8313 150.51 17.5453 150.51 17.216V8.35H154.358V22H150.51V19.712ZM162.567 22.312C161.249 22.312 160.14 22.104 159.239 21.688C158.337 21.2547 157.531 20.648 156.821 19.868L159.083 17.58C159.568 18.1173 160.105 18.542 160.695 18.854C161.284 19.166 161.951 19.322 162.697 19.322C163.459 19.322 163.988 19.2093 164.283 18.984C164.577 18.7413 164.725 18.4207 164.725 18.022C164.725 17.3807 164.265 16.9993 163.347 16.878L161.865 16.696C158.797 16.3147 157.263 14.9107 157.263 12.484C157.263 11.8253 157.384 11.2273 157.627 10.69C157.887 10.1353 158.242 9.66733 158.693 9.286C159.161 8.88733 159.715 8.584 160.357 8.376C161.015 8.15067 161.752 8.038 162.567 8.038C163.277 8.038 163.901 8.09 164.439 8.194C164.993 8.28067 165.479 8.41933 165.895 8.61C166.328 8.78333 166.718 9.00867 167.065 9.286C167.429 9.546 167.784 9.84067 168.131 10.17L165.921 12.432C165.487 11.9987 164.993 11.6607 164.439 11.418C163.901 11.158 163.347 11.028 162.775 11.028C162.116 11.028 161.648 11.132 161.371 11.34C161.093 11.548 160.955 11.8253 160.955 12.172C160.955 12.536 161.05 12.822 161.241 13.03C161.449 13.2207 161.83 13.3593 162.385 13.446L163.919 13.654C166.917 14.0527 168.417 15.422 168.417 17.762C168.417 18.4207 168.278 19.0273 168.001 19.582C167.723 20.1367 167.325 20.622 166.805 21.038C166.302 21.4367 165.687 21.7487 164.959 21.974C164.248 22.1993 163.451 22.312 162.567 22.312ZM86.7305 42.35H90.5785V57.456C90.5785 58.6693 90.2752 59.5967 89.6685 60.238C89.0619 60.8793 88.0825 61.2 86.7305 61.2H84.7025V58.21H86.7305V42.35ZM88.6545 40.894C87.8745 40.894 87.3025 40.7207 86.9385 40.374C86.5919 40.01 86.4185 39.5507 86.4185 38.996V38.424C86.4185 37.8693 86.5919 37.4187 86.9385 37.072C87.3025 36.708 87.8745 36.526 88.6545 36.526C89.4345 36.526 89.9979 36.708 90.3445 37.072C90.7085 37.4187 90.8905 37.8693 90.8905 38.424V38.996C90.8905 39.5507 90.7085 40.01 90.3445 40.374C89.9979 40.7207 89.4345 40.894 88.6545 40.894ZM99.708 56.312C98.7026 56.312 97.8013 56.1473 97.004 55.818C96.224 55.4887 95.5566 55.012 95.002 54.388C94.4646 53.764 94.0486 53.01 93.754 52.126C93.4593 51.242 93.312 50.254 93.312 49.162C93.312 48.07 93.4593 47.082 93.754 46.198C94.0486 45.314 94.4646 44.5687 95.002 43.962C95.5566 43.338 96.224 42.8613 97.004 42.532C97.8013 42.2027 98.7026 42.038 99.708 42.038C100.713 42.038 101.606 42.2027 102.386 42.532C103.183 42.8613 103.851 43.338 104.388 43.962C104.943 44.5687 105.367 45.314 105.662 46.198C105.957 47.082 106.104 48.07 106.104 49.162C106.104 50.254 105.957 51.242 105.662 52.126C105.367 53.01 104.943 53.764 104.388 54.388C103.851 55.012 103.183 55.4887 102.386 55.818C101.606 56.1473 100.713 56.312 99.708 56.312ZM99.708 53.27C100.471 53.27 101.06 53.036 101.476 52.568C101.892 52.1 102.1 51.4327 102.1 50.566V47.784C102.1 46.9173 101.892 46.25 101.476 45.782C101.06 45.314 100.471 45.08 99.708 45.08C98.9453 45.08 98.356 45.314 97.94 45.782C97.524 46.25 97.316 46.9173 97.316 47.784V50.566C97.316 51.4327 97.524 52.1 97.94 52.568C98.356 53.036 98.9453 53.27 99.708 53.27ZM108.846 36.76H112.694V44.638H112.824C113.014 43.8753 113.448 43.2513 114.124 42.766C114.817 42.2807 115.606 42.038 116.49 42.038C118.223 42.038 119.532 42.6447 120.416 43.858C121.3 45.0713 121.742 46.8393 121.742 49.162C121.742 51.4847 121.3 53.2613 120.416 54.492C119.532 55.7053 118.223 56.312 116.49 56.312C116.039 56.312 115.614 56.2427 115.216 56.104C114.817 55.9827 114.453 55.8093 114.124 55.584C113.812 55.3413 113.543 55.064 113.318 54.752C113.092 54.4227 112.928 54.076 112.824 53.712H112.694V56H108.846V36.76ZM115.216 53.192C115.944 53.192 116.542 52.9407 117.01 52.438C117.495 51.918 117.738 51.2247 117.738 50.358V47.992C117.738 47.1253 117.495 46.4407 117.01 45.938C116.542 45.418 115.944 45.158 115.216 45.158C114.488 45.158 113.881 45.34 113.396 45.704C112.928 46.0507 112.694 46.536 112.694 47.16V51.19C112.694 51.814 112.928 52.308 113.396 52.672C113.881 53.0187 114.488 53.192 115.216 53.192ZM126.588 40.894C125.808 40.894 125.236 40.7207 124.872 40.374C124.525 40.01 124.352 39.5507 124.352 38.996V38.424C124.352 37.8693 124.525 37.4187 124.872 37.072C125.236 36.708 125.808 36.526 126.588 36.526C127.368 36.526 127.931 36.708 128.278 37.072C128.642 37.4187 128.824 37.8693 128.824 38.424V38.996C128.824 39.5507 128.642 40.01 128.278 40.374C127.931 40.7207 127.368 40.894 126.588 40.894ZM124.664 42.35H128.512V56H124.664V42.35ZM132.104 56V42.35H135.952V44.664H136.108C136.35 43.9533 136.775 43.338 137.382 42.818C137.988 42.298 138.829 42.038 139.904 42.038C141.308 42.038 142.365 42.506 143.076 43.442C143.804 44.378 144.168 45.7127 144.168 47.446V56H140.32V47.758C140.32 46.874 140.181 46.224 139.904 45.808C139.626 45.3747 139.132 45.158 138.422 45.158C138.11 45.158 137.806 45.2013 137.512 45.288C137.217 45.3573 136.948 45.4787 136.706 45.652C136.48 45.8253 136.298 46.042 136.16 46.302C136.021 46.5447 135.952 46.8307 135.952 47.16V56H132.104ZM147.592 36.76H151.44V44.664H151.596C151.839 43.9533 152.263 43.338 152.87 42.818C153.477 42.298 154.317 42.038 155.392 42.038C156.796 42.038 157.853 42.506 158.564 43.442C159.292 44.378 159.656 45.7127 159.656 47.446V56H155.808V47.758C155.808 46.874 155.669 46.224 155.392 45.808C155.115 45.3747 154.621 45.158 153.91 45.158C153.598 45.158 153.295 45.2013 153 45.288C152.705 45.3573 152.437 45.4787 152.194 45.652C151.969 45.8253 151.787 46.042 151.648 46.302C151.509 46.5447 151.44 46.8307 151.44 47.16V56H147.592V36.76ZM168.618 56.312C167.613 56.312 166.711 56.1473 165.914 55.818C165.134 55.4887 164.467 55.012 163.912 54.388C163.375 53.764 162.959 53.01 162.664 52.126C162.369 51.242 162.222 50.254 162.222 49.162C162.222 48.07 162.369 47.082 162.664 46.198C162.959 45.314 163.375 44.5687 163.912 43.962C164.467 43.338 165.134 42.8613 165.914 42.532C166.711 42.2027 167.613 42.038 168.618 42.038C169.623 42.038 170.516 42.2027 171.296 42.532C172.093 42.8613 172.761 43.338 173.298 43.962C173.853 44.5687 174.277 45.314 174.572 46.198C174.867 47.082 175.014 48.07 175.014 49.162C175.014 50.254 174.867 51.242 174.572 52.126C174.277 53.01 173.853 53.764 173.298 54.388C172.761 55.012 172.093 55.4887 171.296 55.818C170.516 56.1473 169.623 56.312 168.618 56.312ZM168.618 53.27C169.381 53.27 169.97 53.036 170.386 52.568C170.802 52.1 171.01 51.4327 171.01 50.566V47.784C171.01 46.9173 170.802 46.25 170.386 45.782C169.97 45.314 169.381 45.08 168.618 45.08C167.855 45.08 167.266 45.314 166.85 45.782C166.434 46.25 166.226 46.9173 166.226 47.784V50.566C166.226 51.4327 166.434 52.1 166.85 52.568C167.266 53.036 167.855 53.27 168.618 53.27ZM182.384 56.312C181.067 56.312 179.957 56.104 179.056 55.688C178.155 55.2547 177.349 54.648 176.638 53.868L178.9 51.58C179.385 52.1173 179.923 52.542 180.512 52.854C181.101 53.166 181.769 53.322 182.514 53.322C183.277 53.322 183.805 53.2093 184.1 52.984C184.395 52.7413 184.542 52.4207 184.542 52.022C184.542 51.3807 184.083 50.9993 183.164 50.878L181.682 50.696C178.614 50.3147 177.08 48.9107 177.08 46.484C177.08 45.8253 177.201 45.2273 177.444 44.69C177.704 44.1353 178.059 43.6673 178.51 43.286C178.978 42.8873 179.533 42.584 180.174 42.376C180.833 42.1507 181.569 42.038 182.384 42.038C183.095 42.038 183.719 42.09 184.256 42.194C184.811 42.2807 185.296 42.4193 185.712 42.61C186.145 42.7833 186.535 43.0087 186.882 43.286C187.246 43.546 187.601 43.8407 187.948 44.17L185.738 46.432C185.305 45.9987 184.811 45.6607 184.256 45.418C183.719 45.158 183.164 45.028 182.592 45.028C181.933 45.028 181.465 45.132 181.188 45.34C180.911 45.548 180.772 45.8253 180.772 46.172C180.772 46.536 180.867 46.822 181.058 47.03C181.266 47.2207 181.647 47.3593 182.202 47.446L183.736 47.654C186.735 48.0527 188.234 49.422 188.234 51.762C188.234 52.4207 188.095 53.0273 187.818 53.582C187.541 54.1367 187.142 54.622 186.622 55.038C186.119 55.4367 185.504 55.7487 184.776 55.974C184.065 56.1993 183.268 56.312 182.384 56.312Z" fill="#FCFDFF"/>
</svg>
